<?xml version="1.0" encoding="UTF-8"?>
<svg width="315px" height="48px" viewBox="0 0 315 48" version="1.1" xmlns="http://www.w3.org/2000/svg" xmlns:xlink="http://www.w3.org/1999/xlink">
    <!-- Generator: Sketch 51.2 (57519) - http://www.bohemiancoding.com/sketch -->
    <title>News Demo</title>
    <desc>Created with Sketch.</desc>
    <defs></defs>
    <g id="Page-1" stroke="none" stroke-width="1" fill="none" fill-rule="evenodd">
        <g id="Artboard" transform="translate(-73.000000, -285.000000)" fill="#000000">
            <path d="M73.65625,333 L73.65625,299.6875 C73.65625,295.854148 75.0312363,292.578139 77.78125,289.859375 C80.5312637,287.140611 83.8541472,285.78125 87.75,285.78125 C91.6458528,285.78125 94.9687363,287.140611 97.71875,289.859375 C100.468764,292.578139 101.84375,295.854148 101.84375,299.6875 L101.84375,330.8125 L96.84375,333 L96.84375,299.59375 C96.8229166,297.093737 95.9270922,294.968759 94.15625,293.21875 C92.3645744,291.447908 90.2291791,290.5625 87.75,290.5625 C85.2499875,290.5625 83.1041756,291.447908 81.3125,293.21875 C79.5416578,294.968759 78.65625,297.062488 78.65625,299.5 L78.65625,330.8125 L73.65625,333 Z M123.84375,327.9375 C125.593759,327.9375 127.13541,327.281257 128.46875,325.96875 C129.760423,324.69791 130.427083,323.09376 130.46875,321.15625 L130.46875,320.71875 L135.46875,318.5 L135.46875,321.25 C135.46875,324.166681 134.218762,326.95832 131.71875,329.625 C129.593739,331.875011 126.906266,333 123.65625,333 C120.406234,333 117.635428,331.854178 115.34375,329.5625 C113.052072,327.270822 111.90625,324.500016 111.90625,321.25 L111.90625,309.75 C111.90625,306.499984 113.052072,303.729178 115.34375,301.4375 C117.635428,299.145822 120.406234,298 123.65625,298 C126.781266,298 129.562488,299.145822 132,301.4375 C134.312512,303.604177 135.46875,306.374983 135.46875,309.75 L135.46875,312.6875 L116.90625,320.9375 C116.90625,322.916677 117.562493,324.578118 118.875,325.921875 C120.187507,327.265632 121.84374,327.9375 123.84375,327.9375 Z M123.46875,303.0625 C121.718741,303.0625 120.187507,303.718743 118.875,305.03125 C117.562493,306.343757 116.90625,307.916657 116.90625,309.75 L116.90625,315.46875 L130.4375,309.4375 C130.333333,307.687491 129.677089,306.218756 128.46875,305.03125 C127.13541,303.718743 125.46876,303.0625 123.46875,303.0625 Z M145.09375,324.46875 L145.09375,300.1875 L150.09375,298 L150.0625,324.34375 C150.0625,325.385422 150.406247,326.27083 151.09375,327 C151.781253,327.72917 152.593745,328.09375 153.53125,328.09375 C154.510422,328.09375 155.343747,327.72917 156.03125,327 C156.739587,326.249996 157.09375,325.375005 157.09375,324.375 L157.09375,324.34375 L157.125,300.1875 L162.125,298 L162.09375,324.34375 C162.09375,325.385422 162.437497,326.27083 163.125,327 C163.812503,327.72917 164.624995,328.09375 165.5625,328.09375 C166.520838,328.09375 167.354163,327.72917 168.0625,327 C168.770837,326.27083 169.125,325.385422 169.125,324.34375 L169.15625,300.1875 L174.15625,298 L174.15625,324.5 C174.15625,326.833345 173.322925,328.833325 171.65625,330.5 C169.989575,332.166675 167.979178,333 165.625,333 C163.187488,333 161.177091,332.187508 159.59375,330.5625 C157.927075,332.187508 155.927095,333 153.59375,333 C151.093738,333 149.062508,332.187508 147.5,330.5625 C145.916659,328.916658 145.114583,326.885429 145.09375,324.46875 Z M195.78125,327.9375 C197.635426,327.9375 199.166661,327.312506 200.375,326.0625 C201.583339,324.770827 202.1875,323.333341 202.1875,321.75 C202.1875,320.35416 201.583339,319.031256 200.375,317.78125 C199.145827,316.531244 197.479177,315.854167 195.375,315.75 C192.791654,315.624999 190.739591,314.843757 189.21875,313.40625 C187.739576,312.01041 186.854168,310.01043 186.5625,307.40625 C186.541667,307.218749 186.53125,307.031251 186.53125,306.84375 C186.635417,304.572905 187.552075,302.552092 189.28125,300.78125 C191.052092,298.927074 193.208321,298 195.75,298 C198.437513,298 200.593742,298.927074 202.21875,300.78125 C203.302089,302.031256 204.14583,303.68749 204.75,305.75 L200.21875,307.75 C199.885415,306.374993 199.375003,305.281254 198.6875,304.46875 C197.916663,303.614579 196.927089,303.1875 195.71875,303.1875 C194.572911,303.1875 193.572921,303.614579 192.71875,304.46875 C191.927079,305.260421 191.53125,306.156245 191.53125,307.15625 L191.53125,307.3125 C191.53125,308.312505 191.906246,309.17708 192.65625,309.90625 C193.343753,310.593753 194.343743,311.010416 195.65625,311.15625 C199.281268,311.572919 202.06249,312.687491 204,314.5 C206.125011,316.541677 207.1875,319.031235 207.1875,321.96875 L207.1875,322.0625 C207.145833,324.854181 206.114593,327.354156 204.09375,329.5625 C201.968739,331.854178 199.197934,333 195.78125,333 C192.5104,333 189.822927,331.875011 187.71875,329.625 C185.364572,327.145821 184.114584,324.354182 183.96875,321.25 L183.9375,320.9375 L188.9375,318.75 L188.96875,321.15625 C188.989583,323.09376 189.645827,324.69791 190.9375,325.96875 C192.27084,327.281257 193.885407,327.9375 195.78125,327.9375 Z M258.3125,291.1875 L258.3125,327.59375 L267.46875,327.59375 C269.927096,327.59375 272.062491,326.708342 273.875,324.9375 C275.666676,323.187491 276.5625,321.062513 276.5625,318.5625 L276.5625,300.1875 C276.5625,297.708321 275.666676,295.583342 273.875,293.8125 C272.083324,292.041658 269.947929,291.15625 267.46875,291.15625 L267.4375,291.15625 L258.3125,291.1875 Z M267.46875,332.375 L253.3125,332.375 L253.3125,288.5625 L258.3125,286.375 L267.46875,286.375 C271.364603,286.375 274.687486,287.734361 277.4375,290.453125 C280.187514,293.171889 281.5625,296.447898 281.5625,300.28125 L281.5625,318.46875 C281.5625,322.302102 280.187514,325.578111 277.4375,328.296875 C274.687486,331.015639 271.364603,332.375 267.46875,332.375 Z M303.53125,327.9375 C305.281259,327.9375 306.82291,327.281257 308.15625,325.96875 C309.447923,324.69791 310.114583,323.09376 310.15625,321.15625 L310.15625,320.71875 L315.15625,318.5 L315.15625,321.25 C315.15625,324.166681 313.906263,326.95832 311.40625,329.625 C309.281239,331.875011 306.593766,333 303.34375,333 C300.093734,333 297.322928,331.854178 295.03125,329.5625 C292.739572,327.270822 291.59375,324.500016 291.59375,321.25 L291.59375,309.75 C291.59375,306.499984 292.739572,303.729178 295.03125,301.4375 C297.322928,299.145822 300.093734,298 303.34375,298 C306.468766,298 309.249988,299.145822 311.6875,301.4375 C314.000012,303.604177 315.15625,306.374983 315.15625,309.75 L315.15625,312.6875 L296.59375,320.9375 C296.59375,322.916677 297.249993,324.578118 298.5625,325.921875 C299.875007,327.265632 301.53124,327.9375 303.53125,327.9375 Z M303.15625,303.0625 C301.406241,303.0625 299.875007,303.718743 298.5625,305.03125 C297.249993,306.343757 296.59375,307.916657 296.59375,309.75 L296.59375,315.46875 L310.125,309.4375 C310.020833,307.687491 309.364589,306.218756 308.15625,305.03125 C306.82291,303.718743 305.15626,303.0625 303.15625,303.0625 Z M324.78125,333 L324.78125,306.5 C324.78125,304.166655 325.614575,302.166675 327.28125,300.5 C328.947925,298.833325 330.958322,298 333.3125,298 C335.750012,298 337.760409,298.812492 339.34375,300.4375 C341.010425,298.812492 343.010405,298 345.34375,298 C347.843763,298 349.874992,298.812492 351.4375,300.4375 C353.020841,302.083342 353.822917,304.114571 353.84375,306.53125 L353.84375,330.8125 L348.84375,333 L348.875,306.65625 C348.875,305.614578 348.531253,304.72917 347.84375,304 C347.156247,303.27083 346.343755,302.90625 345.40625,302.90625 C344.427078,302.90625 343.593753,303.27083 342.90625,304 C342.197913,304.750004 341.84375,305.624995 341.84375,306.625 L341.84375,306.65625 L341.8125,330.8125 L336.8125,333 L336.84375,306.65625 C336.84375,305.614578 336.500003,304.72917 335.8125,304 C335.124997,303.27083 334.312505,302.90625 333.375,302.90625 C332.416662,302.90625 331.583337,303.27083 330.875,304 C330.166663,304.72917 329.8125,305.614578 329.8125,306.65625 L329.78125,330.8125 L324.78125,333 Z M368.46875,321.15625 C368.46875,323.072926 369.16666,324.677077 370.5625,325.96875 C371.979174,327.281257 373.593741,327.9375 375.40625,327.9375 C377.156259,327.9375 378.69791,327.281257 380.03125,325.96875 C381.322923,324.69791 381.989583,323.09376 382.03125,321.15625 L382.03125,309.84375 C381.989583,307.90624 381.322923,306.30209 380.03125,305.03125 C378.69791,303.718743 377.03126,303.0625 375.03125,303.0625 C373.281241,303.0625 371.750007,303.718743 370.4375,305.03125 C369.145827,306.322923 368.489583,307.864574 368.46875,309.65625 L368.46875,321.15625 Z M363.46875,309.75 C363.46875,306.499984 364.614572,303.729178 366.90625,301.4375 C369.197928,299.145822 371.968734,298 375.21875,298 C378.468766,298 381.249988,299.145822 383.5625,301.4375 C385.875012,303.729178 387.03125,306.499984 387.03125,309.75 L387.03125,321.25 C387.03125,324.500016 385.875012,327.270822 383.5625,329.5625 C381.249988,331.854178 378.468766,333 375.21875,333 C371.968734,333 369.197928,331.854178 366.90625,329.5625 C364.614572,327.270822 363.46875,324.500016 363.46875,321.25 L363.46875,309.75 Z" id="News-Demo"></path>
        </g>
    </g>
</svg>